<svg width="49" height="39" viewBox="0 0 49 39" fill="none" xmlns="http://www.w3.org/2000/svg">
<g id="logos:mastercard" clip-path="url(#clip0_1440_4675)">
<path id="Vector" d="M8.97958 38.2943V35.8009C8.97958 34.8449 8.39764 34.2217 7.40018 34.2217C6.90154 34.2217 6.36126 34.3879 5.98718 34.9282C5.6964 34.471 5.28087 34.2217 4.65748 34.2217C4.24176 34.2217 3.82642 34.3463 3.4938 34.8034V34.3048H2.62109V38.2943H3.4938V36.0917C3.4938 35.3854 3.86788 35.0528 4.44981 35.0528C5.03137 35.0528 5.32252 35.4268 5.32252 36.0917V38.2943H6.19523V36.0917C6.19523 35.3854 6.61057 35.0528 7.15086 35.0528C7.73279 35.0528 8.02357 35.4268 8.02357 36.0917V38.2943H8.97958ZM21.9038 34.3048H20.491V33.0997H19.6183V34.3048H18.8287V35.0942H19.6181V36.9229C19.6181 37.8373 19.9922 38.3774 20.9897 38.3774C21.3637 38.3774 21.7791 38.2528 22.0702 38.0866L21.8207 37.3385C21.5714 37.5047 21.2806 37.5463 21.0728 37.5463C20.6572 37.5463 20.491 37.297 20.491 36.8813V35.0942H21.9038V34.3048ZM29.3012 34.2215C28.8026 34.2215 28.4702 34.471 28.2623 34.8034V34.3048H27.3896V38.2943H28.2623V36.0502C28.2623 35.3854 28.5531 35.0113 29.0934 35.0113C29.2596 35.0113 29.4675 35.0529 29.6337 35.0944L29.883 34.2633C29.7168 34.2217 29.4675 34.2215 29.3012 34.2215ZM18.1222 34.6372C17.7065 34.3463 17.1248 34.2217 16.5014 34.2217C15.5041 34.2217 14.8392 34.7203 14.8392 35.5099C14.8392 36.175 15.3379 36.5489 16.2106 36.6736L16.6261 36.7153C17.0833 36.7982 17.3326 36.9229 17.3326 37.1308C17.3326 37.4216 17.0002 37.6294 16.4183 37.6294C15.8365 37.6294 15.3793 37.4216 15.0884 37.2139L14.6728 37.8787C15.13 38.2112 15.7534 38.3774 16.3766 38.3774C17.5403 38.3774 18.2053 37.8373 18.2053 37.0891C18.2053 36.3826 17.665 36.0086 16.8338 35.884L16.4183 35.8424C16.0442 35.8007 15.7534 35.7178 15.7534 35.4685C15.7534 35.1775 16.0442 35.0113 16.5014 35.0113C17.0002 35.0113 17.4988 35.219 17.7481 35.3437L18.1222 34.6372ZM41.3115 34.2217C40.8127 34.2217 40.4803 34.471 40.2724 34.8034V34.3048H39.3997V38.2943H40.2724V36.0502C40.2724 35.3854 40.5634 35.0113 41.1035 35.0113C41.2699 35.0113 41.4777 35.0529 41.6439 35.0944L41.8933 34.2633C41.7271 34.2217 41.4777 34.2217 41.3115 34.2217ZM30.174 36.2995C30.174 37.5047 31.005 38.3774 32.2934 38.3774C32.8752 38.3774 33.2907 38.2528 33.7063 37.9204L33.2907 37.2139C32.9583 37.4632 32.6259 37.5878 32.2518 37.5878C31.5453 37.5878 31.0467 37.0891 31.0467 36.2995C31.0467 35.5516 31.5453 35.0528 32.2518 35.0113C32.6259 35.0113 32.9583 35.1359 33.2907 35.3854L33.7063 34.6789C33.2907 34.3463 32.8752 34.2217 32.2934 34.2217C31.005 34.2217 30.174 35.0944 30.174 36.2995ZM38.2362 36.2995V34.3048H37.3635V34.8034C37.0725 34.4295 36.657 34.2217 36.1167 34.2217C34.9947 34.2217 34.122 35.0944 34.122 36.2995C34.122 37.5047 34.9947 38.3774 36.1167 38.3774C36.6985 38.3774 37.1142 38.1697 37.3635 37.7956V38.2943H38.2362V36.2995ZM35.0361 36.2995C35.0361 35.593 35.4933 35.0113 36.2413 35.0113C36.9478 35.0113 37.4466 35.5516 37.4466 36.2995C37.4466 37.006 36.9478 37.5878 36.2413 37.5878C35.4933 37.5461 35.0361 37.006 35.0361 36.2995ZM24.6053 34.2217C23.4416 34.2217 22.6103 35.0528 22.6103 36.2995C22.6103 37.5463 23.4414 38.3774 24.6467 38.3774C25.2285 38.3774 25.8104 38.2112 26.2676 37.8373L25.8519 37.2139C25.5194 37.4632 25.1039 37.6294 24.6884 37.6294C24.1481 37.6294 23.6078 37.3801 23.483 36.6734H26.4338V36.3412C26.4754 35.0528 25.7275 34.2217 24.6053 34.2217ZM24.6053 34.9696C25.1454 34.9696 25.5196 35.3023 25.6025 35.9256H23.5247C23.6078 35.3854 23.9819 34.9696 24.6053 34.9696ZM46.2568 36.2995V32.7256H45.3841V34.8034C45.0931 34.4295 44.6776 34.2217 44.1373 34.2217C43.0153 34.2217 42.1426 35.0944 42.1426 36.2995C42.1426 37.5047 43.0153 38.3774 44.1373 38.3774C44.7193 38.3774 45.1348 38.1697 45.3841 37.7956V38.2943H46.2568V36.2995ZM43.0569 36.2995C43.0569 35.593 43.5139 35.0113 44.2621 35.0113C44.9686 35.0113 45.4672 35.5516 45.4672 36.2995C45.4672 37.006 44.9686 37.5878 44.2621 37.5878C43.5139 37.5461 43.0569 37.006 43.0569 36.2995ZM13.8832 36.2995V34.3048H13.0105V34.8034C12.7195 34.4295 12.304 34.2217 11.7637 34.2217C10.6417 34.2217 9.76899 35.0944 9.76899 36.2995C9.76899 37.5047 10.6417 38.3774 11.7637 38.3774C12.3457 38.3774 12.7612 38.1697 13.0105 37.7956V38.2943H13.8832V36.2995ZM10.6417 36.2995C10.6417 35.593 11.0989 35.0113 11.8468 35.0113C12.5533 35.0113 13.0522 35.5516 13.0522 36.2995C13.0522 37.006 12.5533 37.5878 11.8468 37.5878C11.0989 37.5461 10.6417 37.006 10.6417 36.2995Z" fill="black"/>
<path id="Vector_2" d="M17.8301 4.00903H30.9207V27.5308H17.8301V4.00903Z" fill="#FF5F00"/>
<path id="Vector_3" d="M18.6613 15.7699C18.6613 10.9908 20.9054 6.75184 24.3545 4.00896C21.8197 2.01422 18.6198 0.809082 15.129 0.809082C6.85869 0.809082 0.167969 7.4998 0.167969 15.7699C0.167969 24.0398 6.85869 30.7308 15.1288 30.7308C18.6196 30.7308 21.8195 29.5256 24.3545 27.5307C20.9054 24.8295 18.6613 20.549 18.6613 15.7699Z" fill="#EB001B"/>
<path id="Vector_4" d="M48.5831 15.7699C48.5831 24.0398 41.8923 30.7308 33.6222 30.7308C30.1314 30.7308 26.9315 29.5256 24.3965 27.5307C27.8873 24.788 30.0899 20.549 30.0899 15.7699C30.0899 10.9908 27.8457 6.75184 24.3965 4.00896C26.9313 2.01422 30.1314 0.809082 33.6222 0.809082C41.8923 0.809082 48.5831 7.54145 48.5831 15.7699Z" fill="#F79E1B"/>
</g>
<defs>
<clipPath id="clip0_1440_4675">
<rect width="48.4629" height="37.6723" fill="white" transform="translate(0.167969 0.809082)"/>
</clipPath>
</defs>
</svg>
